<?xml version="1.0" encoding="UTF-8" standalone="no"?>
<svg
   xmlns:dc="http://purl.org/dc/elements/1.1/"
   xmlns:cc="http://creativecommons.org/ns#"
   xmlns:rdf="http://www.w3.org/1999/02/22-rdf-syntax-ns#"
   xmlns:svg="http://www.w3.org/2000/svg"
   xmlns="http://www.w3.org/2000/svg"
   xmlns:sodipodi="http://sodipodi.sourceforge.net/DTD/sodipodi-0.dtd"
   xmlns:inkscape="http://www.inkscape.org/namespaces/inkscape"
   inkscape:version="1.0 (4035a4fb49, 2020-05-01)"
   sodipodi:docname="logo.svg"
   viewBox="0 0 450 320"
   preserveAspectRatio="xMidYMid meet"
   version="1.1"
   width="450px"
   id="svg_document"
   height="320px"
   style="zoom: 1;"
   cursor="default">
  <metadata
     id="metadata42">
    <rdf:RDF>
      <cc:Work
         rdf:about="">
        <dc:format>image/svg+xml</dc:format>
        <dc:type
           rdf:resource="http://purl.org/dc/dcmitype/StillImage" />
        <dc:title>Untitled.svg</dc:title>
      </cc:Work>
    </rdf:RDF>
  </metadata>
  <sodipodi:namedview
     inkscape:current-layer="svg_document"
     inkscape:window-maximized="0"
     inkscape:window-y="0"
     inkscape:window-x="0"
     inkscape:cy="210.23256"
     inkscape:cx="225"
     inkscape:zoom="2.3888889"
     inkscape:pagecheckerboard="true"
     showgrid="false"
     id="namedview40"
     inkscape:window-height="919"
     inkscape:window-width="1370"
     inkscape:pageshadow="2"
     inkscape:pageopacity="0"
     guidetolerance="10"
     gridtolerance="10"
     objecttolerance="10"
     borderopacity="1"
     bordercolor="#666666"
     pagecolor="#ffffff" />
  <!-- Created with macSVG - https://macsvg.org/ - https://github.com/dsward2/macsvg/ -->
  <title
     id="svg_document_title">Untitled.svg</title>
  <defs
     id="svg_document_defs">
    <style
       id="HighwayGothic_font_import">@import url(file:///Users/cmhartsell/Downloads/fonts%202/HWYGOTH.ttf);</style>
    <style
       id="style29">@import url(file:///Users/cmhartsell/Downloads/fonts%202/HWYGOTH.ttf);</style>
  </defs>
  <g
     id="main_group" />
  <path
     d="M 231.15234 7.0742188 A 150 150 0 0 0 96.728516 90.513672 A 37 37 0 0 0 81.152344 87.074219 A 37 37 0 0 0 44.152344 124.07422 A 37 37 0 0 0 47.677734 139.83789 A 91 91 0 0 0 3.1523438 218.07422 A 91 91 0 0 0 92.652344 309.0625 L 92.652344 309.07422 L 378.31445 309.07422 A 65 65 0 0 0 381.15234 309.13672 A 65 65 0 0 0 446.15234 244.13672 A 65 65 0 0 0 381.15234 179.13672 A 65 65 0 0 0 379.51758 179.1582 A 150 150 0 0 0 381.15234 157.07422 A 150 150 0 0 0 231.15234 7.0742188 z M 126.97266 233.04297 L 126.97266 282.07422 L 119.19727 282.07422 L 119.19727 236.92969 L 126.97266 233.04297 z M 232.76758 233.04297 L 232.76758 282.07422 L 225.13477 282.07422 L 225.13477 280.84961 C 223.11877 282.24161 220.86319 282.9375 218.36719 282.9375 C 208.76719 282.9375 203.9668 276.96177 203.9668 265.00977 C 203.9668 252.52977 208.81377 246.19395 218.50977 246.00195 C 221.38977 246.04995 223.59877 246.88948 225.13477 248.52148 L 225.13477 236.85742 L 232.76758 233.04297 z M 256.15625 245.85742 C 260.14025 245.85742 263.25964 247.51417 265.51562 250.82617 C 267.81963 247.56217 271.0118 245.92969 275.0918 245.92969 C 278.5958 245.92969 281.66859 247.27489 284.30859 249.96289 C 286.99659 252.65089 288.36411 255.79453 288.41211 259.39453 L 288.41211 282.07422 L 280.85156 282.07422 L 280.85156 259.25 C 280.89956 257.858 280.30073 256.49048 279.05273 255.14648 C 277.85273 253.75448 276.36389 253.08286 274.58789 253.13086 C 272.85989 253.13086 271.44384 253.75395 270.33984 255.00195 C 269.28384 256.24995 268.78013 257.666 268.82812 259.25 L 268.82812 282.07422 L 260.69336 282.07422 L 260.69336 259.25 C 260.74136 257.762 260.16484 256.37022 258.96484 255.07422 C 257.76484 253.73022 256.276 253.08286 254.5 253.13086 C 252.916 253.17886 251.54848 253.82622 250.39648 255.07422 C 249.29248 256.27422 248.71597 257.666 248.66797 259.25 L 248.66797 282.07422 L 240.74805 282.07422 L 240.74805 246.29102 L 248.52539 246.29102 L 248.52539 248.45117 C 250.68539 246.72317 253.22825 245.85742 256.15625 245.85742 z M 341.76367 245.92969 C 346.94767 246.02569 351.24434 247.87461 354.65234 251.47461 L 349.82812 256.29883 C 347.47613 254.13883 344.8362 253.01006 341.9082 252.91406 C 340.7082 252.91406 339.7493 253.17903 339.0293 253.70703 C 338.3573 254.18703 337.99722 254.85866 337.94922 255.72266 C 337.90122 256.49066 338.16423 257.11375 338.74023 257.59375 C 339.36423 258.07375 340.87734 258.76964 343.27734 259.68164 C 346.68534 260.73764 349.49317 262.27502 351.70117 264.29102 C 353.95717 266.30702 355.08398 269.06631 355.08398 272.57031 C 355.03598 275.64231 353.83638 278.13859 351.48438 280.05859 C 349.13236 281.93059 345.89167 282.8895 341.76367 282.9375 C 337.05967 282.8895 332.74069 281.09106 328.80469 277.53906 L 333.84375 272.49805 C 336.77175 274.80205 339.41167 275.97739 341.76367 276.02539 C 343.44367 276.07339 344.85972 275.73758 346.01172 275.01758 C 347.21172 274.24958 347.78823 273.31494 347.74023 272.21094 C 347.78823 271.10694 347.26025 270.07328 346.15625 269.11328 C 345.05225 268.15328 343.27612 267.19437 340.82812 266.23438 C 337.27613 265.03438 334.68473 263.54553 333.05273 261.76953 C 331.42073 259.99353 330.60547 257.93012 330.60547 255.57812 C 330.46147 253.22613 331.42037 251.04139 333.48438 249.02539 C 335.59637 246.96139 338.35567 245.92969 341.76367 245.92969 z M 98.183594 246.00195 C 105.14359 246.00195 109.60817 248.95342 111.57617 254.85742 L 104.44727 257.73828 C 103.39127 254.66628 101.27933 253.15514 98.111328 253.20312 C 95.519328 253.20314 93.648094 254.59491 92.496094 257.37891 C 91.680094 259.34691 91.271484 261.65102 91.271484 264.29102 C 91.271484 266.93102 91.680094 269.23514 92.496094 271.20312 C 93.648094 273.98712 95.519328 275.37891 98.111328 275.37891 C 101.27933 275.42691 103.39127 273.9138 104.44727 270.8418 L 111.57617 273.72266 C 109.60817 279.62666 105.14359 282.57812 98.183594 282.57812 C 92.759594 282.57812 88.800687 280.49045 86.304688 276.31445 C 84.432688 273.24245 83.496094 269.23502 83.496094 264.29102 C 83.496094 259.34702 84.432688 255.33763 86.304688 252.26562 C 88.800686 248.08963 92.759594 246.00195 98.183594 246.00195 z M 149.01562 246.00195 C 154.34363 246.14595 158.27827 248.23362 160.82227 252.26562 C 162.69427 255.33763 163.65512 259.39359 163.70312 264.43359 C 163.65512 269.28159 162.69427 273.24245 160.82227 276.31445 C 158.32627 280.49045 154.39162 282.6975 149.01562 282.9375 C 143.63963 282.6975 139.70303 280.49045 137.20703 276.31445 C 135.33503 273.24245 134.37417 269.28159 134.32617 264.43359 C 134.37417 259.39359 135.33503 255.33763 137.20703 252.26562 C 139.75103 248.23363 143.68764 246.14595 149.01562 246.00195 z M 309.82422 246.00195 C 314.09622 246.00195 317.50483 247.68297 320.04883 251.04297 C 322.64083 254.40297 323.9375 259.94583 323.9375 267.67383 L 303.20117 267.67383 C 303.20117 269.92983 303.8 271.80302 305 273.29102 C 306.2 274.73102 307.75969 275.42691 309.67969 275.37891 C 312.36769 275.47491 314.43305 274.29761 315.87305 271.84961 L 322.71289 274.6582 C 320.31289 280.0342 316.01622 282.7935 309.82422 282.9375 C 305.45622 282.9375 301.92823 281.32928 299.24023 278.11328 C 296.60023 274.89728 295.28125 270.29102 295.28125 264.29102 C 295.28125 259.34702 296.5517 255.07461 299.0957 251.47461 C 301.6877 247.82661 305.26422 246.00195 309.82422 246.00195 z M 374.50781 246.00195 C 378.25181 246.00195 381.39741 247.08219 383.94141 249.24219 C 386.53341 251.35419 387.85239 254.4493 387.90039 258.5293 L 387.90039 282.07422 L 380.48438 282.07422 L 380.48438 280.92188 C 378.61237 282.26587 376.5247 282.96177 374.2207 283.00977 C 370.3807 282.96177 367.18853 281.88153 364.64453 279.76953 C 362.14853 277.60953 360.90039 274.49016 360.90039 270.41016 C 360.90039 266.90616 362.05342 263.97895 364.35742 261.62695 C 366.70942 259.22695 369.87733 258.04966 373.86133 258.09766 C 376.06933 258.09766 378.13273 258.36264 380.05273 258.89062 C 380.14873 255.38664 378.37261 253.46686 374.72461 253.13086 C 371.60461 253.03486 368.79678 253.89866 366.30078 255.72266 L 362.48438 249.89062 C 365.94037 247.44262 369.94781 246.14595 374.50781 246.00195 z M 169.07422 246.86719 L 176.49023 246.86719 L 176.49023 268.89844 C 176.39423 270.72244 176.99502 272.37919 178.29102 273.86719 C 179.58702 275.30719 181.2195 275.97881 183.1875 275.88281 C 185.2515 275.88281 186.81119 275.28203 187.86719 274.08203 C 188.97119 272.88203 189.52344 271.15444 189.52344 268.89844 L 189.52344 246.86719 L 197.1543 246.86719 L 197.1543 282.07422 L 189.66602 282.07422 L 189.66602 280.27344 C 187.55402 282.04944 184.74619 282.9375 181.24219 282.9375 C 177.16219 282.9375 174.11561 281.54572 172.09961 278.76172 C 170.08361 275.97772 169.07422 272.73897 169.07422 269.04297 L 169.07422 246.86719 z M 309.82422 253.13086 C 307.71222 253.08286 306.03316 253.87386 304.78516 255.50586 C 303.53716 257.08986 302.96064 258.79514 303.05664 260.61914 L 316.23242 260.61914 C 316.28042 258.60314 315.70391 256.84933 314.50391 255.36133 C 313.35191 253.87333 311.79222 253.13086 309.82422 253.13086 z M 218.50977 253.41797 C 213.80577 253.70597 211.45508 257.5455 211.45508 264.9375 C 211.50308 272.3775 213.78292 276.12192 218.29492 276.16992 C 220.98292 276.21792 223.21423 275.09111 224.99023 272.78711 L 224.99023 256.94531 C 223.59823 254.59331 221.43777 253.41797 218.50977 253.41797 z M 148.94336 253.49023 C 146.20736 253.49023 144.2148 254.85775 142.9668 257.59375 C 142.1028 259.51375 141.67188 261.81786 141.67188 264.50586 C 141.67187 267.04986 142.1028 269.28314 142.9668 271.20312 C 144.4068 273.93912 146.39936 275.30664 148.94336 275.30664 C 151.72736 275.30664 153.7665 273.93913 155.0625 271.20312 C 155.9265 269.28313 156.35938 267.04986 156.35938 264.50586 C 156.35938 261.81786 155.9265 259.51375 155.0625 257.59375 C 153.8145 254.85775 151.77536 253.49023 148.94336 253.49023 z M 373.5 265.1543 C 371.82 265.1543 370.42822 265.70655 369.32422 266.81055 C 368.22022 267.91455 367.69223 269.16269 367.74023 270.55469 C 367.74023 271.99469 368.29248 273.3622 369.39648 274.6582 C 370.54848 275.9542 372.08391 276.60156 374.00391 276.60156 C 376.06791 276.60156 378.01194 275.7135 379.83594 273.9375 L 379.83594 266.01758 C 377.72394 265.44158 375.612 265.1543 373.5 265.1543 z "
     style="fill:#ffffff;stroke:none;stroke-width:3px"
     id="circle1" />
  <g
     style="font-size:72px;font-family:HighwayGothic;text-anchor:middle;fill:#c3c3c3;stroke:none;stroke-width:1px;text-rendering:geometricPrecision"
     id="text1"
     transform=""
     aria-label="cloudmesa" />
</svg>
